<mxfile host="app.diagrams.net" agent="Mozilla/5.0 (X11; Linux x86_64; rv:135.0) Gecko/20100101 Firefox/135.0" version="26.0.14">
  <diagram id="C5RBs43oDa-KdzZeNtuy" name="Page-1">
    <mxGraphModel dx="1434" dy="833" grid="1" gridSize="10" guides="1" tooltips="1" connect="1" arrows="1" fold="1" page="1" pageScale="1" pageWidth="827" pageHeight="1169" math="0" shadow="0">
      <root>
        <mxCell id="WIyWlLk6GJQsqaUBKTNV-0" />
        <mxCell id="WIyWlLk6GJQsqaUBKTNV-1" parent="WIyWlLk6GJQsqaUBKTNV-0" />
        <mxCell id="aPU1IR1Gpf8o0duNfGmr-50" style="edgeStyle=orthogonalEdgeStyle;rounded=0;orthogonalLoop=1;jettySize=auto;html=1;exitX=0.5;exitY=0;exitDx=0;exitDy=0;strokeColor=#FF3333;dashed=1;dashPattern=1 2;endArrow=diamondThin;endFill=0;" parent="WIyWlLk6GJQsqaUBKTNV-1" source="aPU1IR1Gpf8o0duNfGmr-45" target="aPU1IR1Gpf8o0duNfGmr-47" edge="1">
          <mxGeometry relative="1" as="geometry" />
        </mxCell>
        <mxCell id="aPU1IR1Gpf8o0duNfGmr-51" style="edgeStyle=orthogonalEdgeStyle;rounded=0;orthogonalLoop=1;jettySize=auto;html=1;exitX=0.5;exitY=0;exitDx=0;exitDy=0;entryX=0.5;entryY=1;entryDx=0;entryDy=0;strokeColor=#FF3333;dashed=1;dashPattern=1 2;endArrow=diamondThin;endFill=0;" parent="WIyWlLk6GJQsqaUBKTNV-1" source="aPU1IR1Gpf8o0duNfGmr-45" target="aPU1IR1Gpf8o0duNfGmr-46" edge="1">
          <mxGeometry relative="1" as="geometry" />
        </mxCell>
        <mxCell id="aPU1IR1Gpf8o0duNfGmr-61" value="iop:hasProperty" style="rounded=0;orthogonalLoop=1;jettySize=auto;html=1;exitX=0.061;exitY=0.74;exitDx=0;exitDy=0;exitPerimeter=0;" parent="WIyWlLk6GJQsqaUBKTNV-1" source="aPU1IR1Gpf8o0duNfGmr-45" target="aPU1IR1Gpf8o0duNfGmr-60" edge="1">
          <mxGeometry relative="1" as="geometry" />
        </mxCell>
        <mxCell id="aPU1IR1Gpf8o0duNfGmr-62" value="iop:Constraints" style="rounded=0;orthogonalLoop=1;jettySize=auto;html=1;exitX=0.288;exitY=0.96;exitDx=0;exitDy=0;exitPerimeter=0;" parent="WIyWlLk6GJQsqaUBKTNV-1" source="aPU1IR1Gpf8o0duNfGmr-45" target="aPU1IR1Gpf8o0duNfGmr-59" edge="1">
          <mxGeometry relative="1" as="geometry" />
        </mxCell>
        <mxCell id="aPU1IR1Gpf8o0duNfGmr-63" value="iop:ObjectOfInterest" style="rounded=0;orthogonalLoop=1;jettySize=auto;html=1;exitX=0.612;exitY=0.92;exitDx=0;exitDy=0;exitPerimeter=0;" parent="WIyWlLk6GJQsqaUBKTNV-1" source="aPU1IR1Gpf8o0duNfGmr-45" target="aPU1IR1Gpf8o0duNfGmr-56" edge="1">
          <mxGeometry relative="1" as="geometry" />
        </mxCell>
        <mxCell id="aPU1IR1Gpf8o0duNfGmr-64" value="iop:ContextObject" style="rounded=0;orthogonalLoop=1;jettySize=auto;html=1;exitX=1;exitY=1;exitDx=0;exitDy=0;" parent="WIyWlLk6GJQsqaUBKTNV-1" source="aPU1IR1Gpf8o0duNfGmr-45" target="aPU1IR1Gpf8o0duNfGmr-57" edge="1">
          <mxGeometry relative="1" as="geometry" />
        </mxCell>
        <mxCell id="aPU1IR1Gpf8o0duNfGmr-66" value="iop:hasMatrix" style="rounded=0;orthogonalLoop=1;jettySize=auto;html=1;exitX=1;exitY=0.5;exitDx=0;exitDy=0;" parent="WIyWlLk6GJQsqaUBKTNV-1" source="aPU1IR1Gpf8o0duNfGmr-45" target="aPU1IR1Gpf8o0duNfGmr-58" edge="1">
          <mxGeometry relative="1" as="geometry" />
        </mxCell>
        <mxCell id="aPU1IR1Gpf8o0duNfGmr-45" value="&lt;div&gt;Relative abundance of weed species X at pheno stage Y in AF001-PA&lt;/div&gt;&lt;div&gt;&lt;br&gt;&lt;/div&gt;" style="ellipse;whiteSpace=wrap;html=1;verticalAlign=bottom;" parent="WIyWlLk6GJQsqaUBKTNV-1" vertex="1">
          <mxGeometry x="209" y="130" width="410" height="50" as="geometry" />
        </mxCell>
        <mxCell id="aPU1IR1Gpf8o0duNfGmr-46" value="sosa:ObservableProperty" style="rounded=1;whiteSpace=wrap;html=1;labelBackgroundColor=none;fillColor=#dae8fc;strokeColor=#6c8ebf;" parent="WIyWlLk6GJQsqaUBKTNV-1" vertex="1">
          <mxGeometry x="190" y="40" width="150" height="30" as="geometry" />
        </mxCell>
        <mxCell id="aPU1IR1Gpf8o0duNfGmr-47" value="iop:Variable" style="rounded=1;whiteSpace=wrap;html=1;labelBackgroundColor=none;fillColor=#dae8fc;strokeColor=#6c8ebf;" parent="WIyWlLk6GJQsqaUBKTNV-1" vertex="1">
          <mxGeometry x="440" y="40" width="90" height="30" as="geometry" />
        </mxCell>
        <mxCell id="aPU1IR1Gpf8o0duNfGmr-48" value="iop:VariableSet" style="rounded=1;whiteSpace=wrap;html=1;labelBackgroundColor=none;fillColor=#dae8fc;strokeColor=#6c8ebf;" parent="WIyWlLk6GJQsqaUBKTNV-1" vertex="1">
          <mxGeometry x="660" y="40" width="90" height="30" as="geometry" />
        </mxCell>
        <mxCell id="aPU1IR1Gpf8o0duNfGmr-49" value="&lt;div&gt;iop:hasMember&lt;/div&gt;" style="edgeStyle=orthogonalEdgeStyle;rounded=0;orthogonalLoop=1;jettySize=auto;html=1;exitX=0;exitY=0.5;exitDx=0;exitDy=0;labelPosition=center;verticalLabelPosition=top;align=center;verticalAlign=bottom;" parent="WIyWlLk6GJQsqaUBKTNV-1" source="aPU1IR1Gpf8o0duNfGmr-48" target="aPU1IR1Gpf8o0duNfGmr-47" edge="1">
          <mxGeometry relative="1" as="geometry" />
        </mxCell>
        <mxCell id="aPU1IR1Gpf8o0duNfGmr-52" value="iop:property" style="rounded=1;whiteSpace=wrap;html=1;labelBackgroundColor=none;fillColor=#dae8fc;strokeColor=#6c8ebf;" parent="WIyWlLk6GJQsqaUBKTNV-1" vertex="1">
          <mxGeometry x="45" y="350" width="90" height="30" as="geometry" />
        </mxCell>
        <mxCell id="aPU1IR1Gpf8o0duNfGmr-53" value="iop:Constraint" style="rounded=1;whiteSpace=wrap;html=1;labelBackgroundColor=none;fillColor=#dae8fc;strokeColor=#6c8ebf;" parent="WIyWlLk6GJQsqaUBKTNV-1" vertex="1">
          <mxGeometry x="211" y="350" width="90" height="30" as="geometry" />
        </mxCell>
        <mxCell id="aPU1IR1Gpf8o0duNfGmr-55" value="iop:Entity" style="rounded=1;whiteSpace=wrap;html=1;labelBackgroundColor=none;fillColor=#dae8fc;strokeColor=#6c8ebf;" parent="WIyWlLk6GJQsqaUBKTNV-1" vertex="1">
          <mxGeometry x="550" y="350" width="70" height="30" as="geometry" />
        </mxCell>
        <mxCell id="aPU1IR1Gpf8o0duNfGmr-72" style="rounded=0;orthogonalLoop=1;jettySize=auto;html=1;exitX=0.5;exitY=1;exitDx=0;exitDy=0;strokeColor=none;endArrow=diamondThin;endFill=0;dashed=1;dashPattern=1 2;" parent="WIyWlLk6GJQsqaUBKTNV-1" source="aPU1IR1Gpf8o0duNfGmr-56" target="aPU1IR1Gpf8o0duNfGmr-55" edge="1">
          <mxGeometry relative="1" as="geometry" />
        </mxCell>
        <mxCell id="aPU1IR1Gpf8o0duNfGmr-105" style="edgeStyle=orthogonalEdgeStyle;rounded=0;orthogonalLoop=1;jettySize=auto;html=1;exitX=0.5;exitY=1;exitDx=0;exitDy=0;strokeColor=#FF3333;dashed=1;dashPattern=1 2;endArrow=diamondThin;endFill=0;" parent="WIyWlLk6GJQsqaUBKTNV-1" source="aPU1IR1Gpf8o0duNfGmr-56" target="aPU1IR1Gpf8o0duNfGmr-55" edge="1">
          <mxGeometry relative="1" as="geometry" />
        </mxCell>
        <mxCell id="aPU1IR1Gpf8o0duNfGmr-56" value="weed species X" style="ellipse;whiteSpace=wrap;html=1;" parent="WIyWlLk6GJQsqaUBKTNV-1" vertex="1">
          <mxGeometry x="440" y="250" width="120" height="40" as="geometry" />
        </mxCell>
        <mxCell id="aPU1IR1Gpf8o0duNfGmr-70" style="rounded=0;orthogonalLoop=1;jettySize=auto;html=1;exitX=0.5;exitY=1;exitDx=0;exitDy=0;strokeColor=#FF3333;endArrow=diamondThin;endFill=0;dashed=1;dashPattern=1 2;" parent="WIyWlLk6GJQsqaUBKTNV-1" source="aPU1IR1Gpf8o0duNfGmr-57" target="aPU1IR1Gpf8o0duNfGmr-55" edge="1">
          <mxGeometry relative="1" as="geometry" />
        </mxCell>
        <mxCell id="aPU1IR1Gpf8o0duNfGmr-102" style="rounded=0;orthogonalLoop=1;jettySize=auto;html=1;exitX=0.5;exitY=1;exitDx=0;exitDy=0;strokeColor=#FF3333;endArrow=diamondThin;endFill=0;dashed=1;dashPattern=1 2;" parent="WIyWlLk6GJQsqaUBKTNV-1" source="aPU1IR1Gpf8o0duNfGmr-57" target="aPU1IR1Gpf8o0duNfGmr-101" edge="1">
          <mxGeometry relative="1" as="geometry" />
        </mxCell>
        <mxCell id="aPU1IR1Gpf8o0duNfGmr-57" value="AF001" style="ellipse;whiteSpace=wrap;html=1;" parent="WIyWlLk6GJQsqaUBKTNV-1" vertex="1">
          <mxGeometry x="600" y="250" width="70" height="40" as="geometry" />
        </mxCell>
        <mxCell id="aPU1IR1Gpf8o0duNfGmr-71" style="rounded=0;orthogonalLoop=1;jettySize=auto;html=1;exitX=0.5;exitY=1;exitDx=0;exitDy=0;strokeColor=#FF3333;endArrow=diamondThin;endFill=0;dashed=1;dashPattern=1 2;" parent="WIyWlLk6GJQsqaUBKTNV-1" source="aPU1IR1Gpf8o0duNfGmr-58" target="aPU1IR1Gpf8o0duNfGmr-55" edge="1">
          <mxGeometry relative="1" as="geometry" />
        </mxCell>
        <mxCell id="aPU1IR1Gpf8o0duNfGmr-103" style="rounded=0;orthogonalLoop=1;jettySize=auto;html=1;exitX=0.5;exitY=1;exitDx=0;exitDy=0;strokeColor=#FF3333;endArrow=diamondThin;endFill=0;dashed=1;dashPattern=1 2;" parent="WIyWlLk6GJQsqaUBKTNV-1" source="aPU1IR1Gpf8o0duNfGmr-58" target="aPU1IR1Gpf8o0duNfGmr-101" edge="1">
          <mxGeometry relative="1" as="geometry" />
        </mxCell>
        <mxCell id="aPU1IR1Gpf8o0duNfGmr-58" value="PA" style="ellipse;whiteSpace=wrap;html=1;" parent="WIyWlLk6GJQsqaUBKTNV-1" vertex="1">
          <mxGeometry x="740" y="250" width="70" height="40" as="geometry" />
        </mxCell>
        <mxCell id="aPU1IR1Gpf8o0duNfGmr-68" value="" style="edgeStyle=orthogonalEdgeStyle;rounded=0;orthogonalLoop=1;jettySize=auto;html=1;exitX=0.5;exitY=1;exitDx=0;exitDy=0;strokeColor=#FF3333;endArrow=diamondThin;endFill=0;dashed=1;dashPattern=1 2;" parent="WIyWlLk6GJQsqaUBKTNV-1" source="aPU1IR1Gpf8o0duNfGmr-59" target="aPU1IR1Gpf8o0duNfGmr-53" edge="1">
          <mxGeometry relative="1" as="geometry" />
        </mxCell>
        <mxCell id="aPU1IR1Gpf8o0duNfGmr-100" value="iop:constrains" style="rounded=0;orthogonalLoop=1;jettySize=auto;html=1;exitX=1;exitY=0.5;exitDx=0;exitDy=0;" parent="WIyWlLk6GJQsqaUBKTNV-1" source="aPU1IR1Gpf8o0duNfGmr-59" target="aPU1IR1Gpf8o0duNfGmr-56" edge="1">
          <mxGeometry relative="1" as="geometry" />
        </mxCell>
        <mxCell id="aPU1IR1Gpf8o0duNfGmr-59" value="pheno stage Y" style="ellipse;whiteSpace=wrap;html=1;" parent="WIyWlLk6GJQsqaUBKTNV-1" vertex="1">
          <mxGeometry x="196" y="250" width="120" height="40" as="geometry" />
        </mxCell>
        <mxCell id="aPU1IR1Gpf8o0duNfGmr-67" style="edgeStyle=orthogonalEdgeStyle;rounded=0;orthogonalLoop=1;jettySize=auto;html=1;exitX=0.5;exitY=1;exitDx=0;exitDy=0;strokeColor=#FF3333;endArrow=diamondThin;endFill=0;dashed=1;dashPattern=1 2;" parent="WIyWlLk6GJQsqaUBKTNV-1" source="aPU1IR1Gpf8o0duNfGmr-60" target="aPU1IR1Gpf8o0duNfGmr-52" edge="1">
          <mxGeometry relative="1" as="geometry">
            <Array as="points">
              <mxPoint x="91" y="290" />
            </Array>
          </mxGeometry>
        </mxCell>
        <mxCell id="aPU1IR1Gpf8o0duNfGmr-60" value="Relative abundance" style="ellipse;whiteSpace=wrap;html=1;" parent="WIyWlLk6GJQsqaUBKTNV-1" vertex="1">
          <mxGeometry x="30" y="250" width="120" height="40" as="geometry" />
        </mxCell>
        <mxCell id="aPU1IR1Gpf8o0duNfGmr-101" value="sosa:FeatureOfinterest" style="rounded=1;whiteSpace=wrap;html=1;labelBackgroundColor=none;fillColor=#dae8fc;strokeColor=#6c8ebf;" parent="WIyWlLk6GJQsqaUBKTNV-1" vertex="1">
          <mxGeometry x="660" y="350" width="140" height="30" as="geometry" />
        </mxCell>
      </root>
    </mxGraphModel>
  </diagram>
</mxfile>
